<?xml version="1.0" encoding="utf-8"?>
<!-- Generator: Adobe Illustrator 23.0.3, SVG Export Plug-In . SVG Version: 6.00 Build 0)  -->
<svg version="1.1" id="Layer_1" xmlns="http://www.w3.org/2000/svg" xmlns:xlink="http://www.w3.org/1999/xlink" x="0px" y="0px"
	 width="208px" height="34px" viewBox="0 0 208 34" enable-background="new 0 0 208 34" xml:space="preserve">
<g id="logo_1_">
	<defs>
		<path id="mask" d="M192.37,33.8c-0.13,0.19-0.26,0.26-0.42,0.16l-1.02-0.48c-0.19-0.1-0.26-0.26-0.16-0.42l15.58-31.84
			c0.13-0.19,0.26-0.26,0.42-0.16l1.02,0.48c0.19,0.1,0.26,0.26,0.16,0.42L192.37,33.8z M172.88,28.58
			c-0.35-0.19-0.45-0.48-0.29-0.83l1.44-3.42c0.16-0.42,0.45-0.48,0.86-0.26c1.47,0.83,3.17,1.25,5.09,1.25
			c1.76,0,2.62-0.38,2.62-1.15c0-0.64-0.93-0.93-3.1-1.22c-4.26-0.61-6.05-2.43-6.05-6.05c0-3.84,2.53-5.89,7.1-5.89
			c2.34,0,4.45,0.58,6.4,1.73c0.35,0.22,0.45,0.51,0.29,0.86l-1.47,3.36c-0.16,0.42-0.45,0.48-0.86,0.26
			c-1.44-0.8-2.98-1.22-4.61-1.22c-0.99,0-1.5,0.19-1.5,0.61c0,0.61,0.45,0.77,2.24,1.02c4.58,0.74,6.91,2.27,6.91,6.24
			c0,4-2.94,6.43-7.97,6.43C177.33,30.31,174.96,29.73,172.88,28.58z M159.66,22.98h10.17c0.42,0,0.64-0.19,0.67-0.61
			c0.06-0.86,0.1-1.73,0.1-2.59c0-2.56-0.8-4.67-2.37-6.3c-1.57-1.63-3.62-2.46-6.08-2.46c-2.59,0-4.7,0.9-6.33,2.72
			s-2.43,4.13-2.43,6.94c0,2.82,0.9,5.12,2.66,6.94c1.76,1.79,4.03,2.69,6.78,2.69c2.78,0,5.22-0.7,7.23-2.08
			c0.32-0.22,0.38-0.51,0.22-0.87l-1.6-3.2c-0.16-0.38-0.48-0.45-0.9-0.22c-1.34,0.8-2.88,1.22-4.58,1.22
			c-1.95,0-3.23-0.64-3.84-1.89C159.27,23.11,159.43,22.98,159.66,22.98z M159.27,18.25c0.48-1.38,1.44-2.08,2.88-2.08
			c1.5,0,2.46,0.7,2.82,2.08c0.03,0.22-0.06,0.35-0.29,0.35h-5.15C159.24,18.6,159.18,18.47,159.27,18.25z M151.24,24.97l1.38,3.26
			c0.16,0.35,0.06,0.64-0.29,0.86c-1.5,0.8-3.2,1.22-5.02,1.22c-4.51,0-6.69-2.11-6.69-6.56V10.5c0-0.22-0.1-0.32-0.32-0.32h-4.45
			c-0.42,0-0.64-0.22-0.64-0.64V5.67c0-0.42,0.22-0.64,0.64-0.64h9.63c0.42,0,0.64,0.22,0.64,0.64v17.69c0,1.18,0.64,1.79,1.95,1.79
			c0.83,0,1.6-0.16,2.34-0.48C150.83,24.49,151.08,24.58,151.24,24.97z M124.56,23.53v-5.98c0-0.22-0.1-0.32-0.32-0.32h-4.51
			c-0.42,0-0.64-0.22-0.64-0.64v-3.87c0-0.42,0.22-0.64,0.64-0.64h9.7c0.42,0,0.64,0.22,0.64,0.64v10.43c0,1.44,0.8,2.18,2.43,2.18
			c0.96,0,1.89-0.22,2.78-0.64c0.42-0.19,0.67-0.1,0.83,0.29l1.47,3.46c0.16,0.38,0.06,0.67-0.29,0.86
			c-1.63,0.8-3.33,1.18-5.15,1.18C127.02,30.47,124.56,28.23,124.56,23.53z M127.41,2.12c2.56,0,4.13,1.41,4.13,3.68
			c0,2.3-1.57,3.68-4.13,3.68c-2.56,0-4.13-1.38-4.13-3.68C123.28,3.53,124.85,2.12,127.41,2.12z M105.24,29.99
			c-0.42,0-0.64-0.22-0.64-0.64V17.77c0-0.22-0.1-0.32-0.32-0.32h-3.23c-0.42,0-0.64-0.22-0.64-0.64v-3.87
			c0-0.42,0.22-0.64,0.64-0.64h3.23c0.22,0,0.32-0.1,0.32-0.32v-0.7c0-4.7,2.27-6.91,7.1-6.91c1.76,0,3.3,0.35,4.67,1.02
			c0.38,0.22,0.48,0.51,0.32,0.86l-1.47,3.46c-0.16,0.38-0.42,0.48-0.83,0.29c-0.7-0.35-1.47-0.51-2.34-0.51
			c-1.31,0-1.95,0.61-1.95,1.79v0.7c0,0.22,0.1,0.32,0.32,0.32h6.02c0.42,0,0.64,0.22,0.64,0.64v3.87c0,0.42-0.22,0.64-0.64,0.64
			h-6.02c-0.22,0-0.32,0.1-0.32,0.32v11.58c0,0.42-0.22,0.64-0.64,0.64H105.24z M97.48,25l1.41,3.26c0.16,0.38,0.06,0.67-0.32,0.86
			c-1.54,0.8-3.23,1.18-5.06,1.18c-4.64,0-6.85-2.11-6.85-6.46v-7.04c0-0.22-0.1-0.32-0.32-0.32h-3.81c-0.42,0-0.64-0.22-0.64-0.64
			v-3.87c0-0.42,0.22-0.64,0.64-0.64h3.81c0.22,0,0.32-0.1,0.32-0.32V6.7c0-0.42,0.22-0.64,0.64-0.64h4.22
			c0.42,0,0.64,0.22,0.64,0.64v4.32c0,0.22,0.1,0.32,0.32,0.32h5.12c0.42,0,0.64,0.22,0.64,0.64v3.87c0,0.42-0.22,0.64-0.64,0.64
			h-5.12c-0.22,0-0.32,0.1-0.32,0.32v6.66c0,1.12,0.67,1.7,2.05,1.7c0.86,0,1.7-0.16,2.43-0.48C97.07,24.52,97.32,24.61,97.48,25z
			 M78.33,13.58c-1.54-1.7-3.68-2.56-6.43-2.56c-2.75,0-4.9,0.86-6.46,2.56c-1.54,1.7-2.3,4.06-2.3,7.1c0,3.04,0.77,5.41,2.34,7.1
			c1.57,1.7,3.71,2.53,6.43,2.53c2.72,0,4.86-0.83,6.43-2.53c1.57-1.7,2.34-4.06,2.34-7.1C80.67,17.64,79.9,15.27,78.33,13.58z
			 M74.3,24.01c-0.54,0.77-1.34,1.15-2.4,1.15c-1.06,0-1.86-0.38-2.43-1.15c-0.54-0.8-0.83-1.89-0.83-3.33s0.29-2.53,0.83-3.33
			c0.58-0.8,1.38-1.18,2.43-1.18c1.06,0,1.86,0.38,2.4,1.18c0.58,0.8,0.86,1.89,0.86,3.33S74.88,23.21,74.3,24.01z M60.21,5.03
			h-4.22c-0.42,0-0.64,0.22-0.64,0.64v5.63c0,0.29-0.13,0.35-0.38,0.26c-0.86-0.35-1.82-0.54-2.91-0.54c-2.4,0-4.32,0.86-5.73,2.59
			c-1.41,1.73-2.11,4.1-2.11,7.07c0,2.98,0.7,5.31,2.11,7.04c1.41,1.73,3.33,2.59,5.73,2.59c1.44,0,2.66-0.35,3.65-1.06
			c0.26-0.19,0.38-0.13,0.38,0.19v0.03c0,0.35,0.22,0.51,0.64,0.51h3.49c0.42,0,0.64-0.22,0.64-0.64V5.67
			C60.85,5.26,60.63,5.03,60.21,5.03z M55.35,24.23c0,0.16-0.06,0.29-0.19,0.42C54.61,25,54,25.16,53.33,25.16
			c-2.21,0-3.62-1.66-3.62-4.48c0-2.82,1.41-4.51,3.62-4.51c0.61,0,1.22,0.13,1.79,0.38c0.16,0.1,0.22,0.22,0.22,0.38V24.23z
			 M35.99,22.02c2.69,0,4.48,1.63,4.48,4.16c0,2.46-1.79,4.13-4.48,4.13c-2.69,0-4.48-1.66-4.48-4.13
			C31.51,23.65,33.31,22.02,35.99,22.02z M18.64,33.8c-0.13,0.19-0.26,0.26-0.42,0.16l-1.02-0.48c-0.19-0.1-0.26-0.26-0.16-0.42
			L32.63,1.22c0.13-0.19,0.26-0.26,0.42-0.16l1.02,0.48c0.19,0.1,0.26,0.26,0.16,0.42L18.64,33.8z M0.25,21.48
			c-0.22-0.06-0.29-0.19-0.22-0.42c0.99-3.23,2.59-4.83,4.86-4.83c0.51,0,1.02,0.13,1.54,0.35c1.02,0.42,1.41,0.8,2.3,1.66
			c1.18,1.18,2.24,1.79,3.17,1.79c1.54,0,2.46-0.93,3.26-3.2c0.06-0.19,0.19-0.26,0.38-0.19l1.09,0.29
			c0.22,0.06,0.29,0.19,0.22,0.42c-0.99,3.23-2.62,4.86-4.86,4.86c-0.51,0-1.02-0.1-1.54-0.32c-1.02-0.48-1.41-0.83-2.3-1.7
			c-1.22-1.22-2.27-1.82-3.17-1.82c-1.54,0-2.46,0.93-3.26,3.2c-0.06,0.22-0.19,0.29-0.38,0.22L0.25,21.48z"/>
	</defs>
	<clipPath id="mask_1_">
		<use xlink:href="#mask"  overflow="visible"/>
	</clipPath>
	<rect id="background" clip-path="url(#mask_1_)" fill="#24292E" width="208" height="34"/>
	<g id="gradients" clip-path="url(#mask_1_)">
		<linearGradient id="_x35__1_" gradientUnits="userSpaceOnUse" x1="104" y1="34" x2="104" y2="30">
			<stop  offset="0" style="stop-color:#FFFFFF;stop-opacity:0"/>
			<stop  offset="0.6" style="stop-color:#FFFFFF;stop-opacity:0.1"/>
			<stop  offset="1" style="stop-color:#FFFFFF;stop-opacity:0.05"/>
		</linearGradient>
		<rect id="_x35_" y="30" fill="url(#_x35__1_)" width="208" height="4"/>
		<linearGradient id="_x34__1_" gradientUnits="userSpaceOnUse" x1="104" y1="28" x2="104" y2="24">
			<stop  offset="0" style="stop-color:#FFFFFF;stop-opacity:0"/>
			<stop  offset="0.6" style="stop-color:#FFFFFF;stop-opacity:0.1"/>
			<stop  offset="1" style="stop-color:#FFFFFF;stop-opacity:0.05"/>
		</linearGradient>
		<rect id="_x34_" y="24" fill="url(#_x34__1_)" width="208" height="4"/>
		<linearGradient id="_x33__1_" gradientUnits="userSpaceOnUse" x1="104" y1="22" x2="104" y2="18">
			<stop  offset="0" style="stop-color:#FFFFFF;stop-opacity:0"/>
			<stop  offset="0.6" style="stop-color:#FFFFFF;stop-opacity:0.1"/>
			<stop  offset="1" style="stop-color:#FFFFFF;stop-opacity:0.05"/>
		</linearGradient>
		<rect id="_x33_" y="18" fill="url(#_x33__1_)" width="208" height="4"/>
		<linearGradient id="_x32__1_" gradientUnits="userSpaceOnUse" x1="104" y1="16" x2="104" y2="12">
			<stop  offset="0" style="stop-color:#FFFFFF;stop-opacity:0"/>
			<stop  offset="0.6" style="stop-color:#FFFFFF;stop-opacity:0.1"/>
			<stop  offset="1" style="stop-color:#FFFFFF;stop-opacity:0.05"/>
		</linearGradient>
		<rect id="_x32_" y="12" fill="url(#_x32__1_)" width="208" height="4"/>
		<linearGradient id="_x31__1_" gradientUnits="userSpaceOnUse" x1="104" y1="10" x2="104" y2="6">
			<stop  offset="0" style="stop-color:#FFFFFF;stop-opacity:0"/>
			<stop  offset="0.6" style="stop-color:#FFFFFF;stop-opacity:0.1"/>
			<stop  offset="1" style="stop-color:#FFFFFF;stop-opacity:0.05"/>
		</linearGradient>
		<rect id="_x31_" y="6" fill="url(#_x31__1_)" width="208" height="4"/>
		<linearGradient id="_x30__1_" gradientUnits="userSpaceOnUse" x1="104" y1="4" x2="104" y2="0">
			<stop  offset="0" style="stop-color:#FFFFFF;stop-opacity:0"/>
			<stop  offset="0.6" style="stop-color:#FFFFFF;stop-opacity:0.1"/>
			<stop  offset="1" style="stop-color:#FFFFFF;stop-opacity:0.05"/>
		</linearGradient>
		<rect id="_x30_" fill="url(#_x30__1_)" width="208" height="4"/>
	</g>
	<linearGradient id="outline_1_" gradientUnits="userSpaceOnUse" x1="104.0002" y1="35" x2="104.0002" y2="0.0181">
		<stop  offset="0" style="stop-color:#000000;stop-opacity:0.9"/>
		<stop  offset="1" style="stop-color:#000000;stop-opacity:0.8"/>
	</linearGradient>
	<path id="outline" clip-path="url(#mask_1_)" fill="url(#outline_1_)" d="M35.22,1.47c-0.1-0.35-0.35-0.64-0.73-0.83L33.5,0.17
		c-0.19-0.1-0.39-0.15-0.6-0.15c-0.25,0-0.73,0.08-1.11,0.65c-0.02,0.04-0.05,0.08-0.07,0.12L16.19,32.55
		c-0.19,0.31-0.23,0.67-0.14,1.01c0.1,0.35,0.35,0.64,0.73,0.83l0.94,0.43c0.21,0.12,0.43,0.19,0.65,0.19
		c0.25,0,0.73-0.08,1.11-0.65c0.02-0.04,0.05-0.07,0.07-0.11L35.08,2.47C35.27,2.16,35.32,1.8,35.22,1.47z M18.27,33.42l-0.69-0.33
		L33,1.59l0.69,0.33L18.27,33.42z M98.41,24.61c-0.38-0.91-1.12-1.01-1.42-1.01c-0.22,0-0.45,0.05-0.74,0.16
		c-0.6,0.26-1.3,0.4-2.03,0.4c-1.05,0-1.05-0.34-1.05-0.7v-5.98h4.44c0.97,0,1.64-0.67,1.64-1.64v-3.87c0-0.97-0.67-1.64-1.64-1.64
		h-4.44V6.7c0-0.97-0.67-1.64-1.64-1.64h-4.22c-0.97,0-1.64,0.67-1.64,1.64v3.64h-3.13c-0.97,0-1.64,0.67-1.64,1.64
		c0,0,0,3.92,0,3.95c-0.43-1.16-1.04-2.17-1.83-3.02c-1.74-1.92-4.15-2.89-7.17-2.89c-3.01,0-5.43,0.97-7.2,2.89
		c-1.7,1.88-2.56,4.49-2.56,7.77c0,3.3,0.88,5.92,2.6,7.78c1.75,1.89,4.16,2.85,7.17,2.85c3.01,0,5.42-0.96,7.17-2.85
		c1.73-1.87,2.6-4.48,2.6-7.78c0-1.41-0.16-2.69-0.48-3.84c0.29,0.41,0.76,0.65,1.35,0.65h3.13v6.36c0,4.95,2.64,7.46,7.85,7.46
		c2.01,0,3.87-0.44,5.5-1.29c0.85-0.42,1.16-1.27,0.79-2.15L98.41,24.61z M77.97,27.44c-1.47,1.59-3.46,2.37-6.06,2.37
		c-2.61,0-4.59-0.77-6.06-2.37c-1.48-1.6-2.2-3.81-2.2-6.76c0-2.9,0.73-5.17,2.17-6.77c1.49-1.61,3.48-2.4,6.09-2.4
		c2.58,0,4.62,0.81,6.06,2.4c1.47,1.59,2.21,3.86,2.21,6.77C80.17,23.63,79.45,25.84,77.97,27.44z M98.35,28.68
		c-1.44,0.75-3.07,1.13-4.83,1.13c-4.33,0-6.35-1.9-6.35-5.96v-7.04c0-0.5-0.32-0.82-0.82-0.82h-3.81c-0.09,0-0.12-0.02-0.12-0.02
		c0,0-0.02-0.03-0.02-0.12v-3.87c0-0.09,0.02-0.12,0.02-0.12c0,0,0,0,0,0c0,0,0.04-0.02,0.12-0.02h3.81c0.5,0,0.82-0.32,0.82-0.82
		V6.7c0-0.09,0.02-0.12,0.02-0.12c0,0,0,0,0,0c0,0,0.04-0.02,0.12-0.02h4.22c0.09,0,0.12,0.02,0.12,0.02c0,0,0.02,0.03,0.02,0.12
		v4.32c0,0.5,0.32,0.82,0.82,0.82h5.12c0.09,0,0.12,0.02,0.12,0.02c0,0,0.02,0.03,0.02,0.12v3.87c0,0.09-0.02,0.12-0.02,0.12
		c0,0-0.04,0.02-0.12,0.02h-5.12c-0.5,0-0.82,0.32-0.82,0.82v6.66c0,0.82,0.33,2.2,2.55,2.2c0.94,0,1.85-0.18,2.63-0.52
		c0.06-0.02,0.11-0.03,0.13-0.03c0,0.01,0.02,0.04,0.04,0.09l1.41,3.27c0.04,0.09,0.03,0.13,0.03,0.14
		C98.46,28.6,98.44,28.63,98.35,28.68z M60.21,4.03h-4.22c-0.97,0-1.64,0.67-1.64,1.64v4.63c-0.73-0.19-1.5-0.29-2.3-0.29
		c-2.71,0-4.9,1-6.5,2.96c-1.55,1.9-2.34,4.49-2.34,7.7c0,3.19,0.79,5.77,2.34,7.67c1.6,1.96,3.79,2.96,6.5,2.96
		c1.29,0,2.44-0.26,3.45-0.77c0.27,0.27,0.67,0.45,1.22,0.45h3.49c0.97,0,1.64-0.67,1.64-1.64V5.67
		C61.85,4.71,61.18,4.03,60.21,4.03z M60.35,29.35c0,0.09-0.02,0.12-0.02,0.12c0,0-0.04,0.02-0.12,0.02h-3.49
		c-0.13,0-0.17-0.02-0.18-0.02c0.04-0.8-0.55-0.82-0.61-0.82c-0.17,0-0.35,0.07-0.53,0.21c-0.89,0.63-2.02,0.96-3.35,0.96
		c-2.24,0-4.04-0.81-5.34-2.41c-1.33-1.63-2-3.89-2-6.72c0-2.85,0.67-5.13,2-6.76c1.3-1.6,3.1-2.41,5.34-2.41
		c1,0,1.89,0.17,2.72,0.51c0.14,0.05,0.26,0.08,0.38,0.08c0.35,0,0.7-0.25,0.7-0.8V5.67c0-0.09,0.02-0.12,0.02-0.12c0,0,0,0,0,0
		c0,0,0.04-0.02,0.12-0.02h4.22c0.09,0,0.12,0.02,0.12,0.02c0,0,0.02,0.03,0.02,0.12V29.35z M55.38,16.12
		c-0.69-0.31-1.36-0.45-2.05-0.45c-2.5,0-4.12,1.97-4.12,5.01c0,3.07,1.58,4.98,4.12,4.98c0.78,0,1.49-0.2,2.1-0.59L55.51,25
		c0.23-0.23,0.34-0.48,0.34-0.77v-7.3C55.85,16.59,55.68,16.3,55.38,16.12z M54.35,23.95c-0.3,0.14-0.64,0.21-1.02,0.21
		c-2.36,0-2.62-2.43-2.62-3.48c0-1.06,0.25-3.51,2.62-3.51c0.34,0,0.69,0.05,1.02,0.16V23.95z M116.44,11.3h-5.34v-0.02
		c0-0.49,0.05-0.79,0.95-0.79c0.72,0,1.34,0.13,1.92,0.42c0.27,0.13,0.53,0.19,0.78,0.19c0.29,0,1.01-0.1,1.39-0.99l1.46-3.43
		c0.38-0.82,0.09-1.67-0.79-2.18c-1.55-0.76-3.22-1.13-5.11-1.13c-5.38,0-8.1,2.66-8.1,7.91v0.02h-2.55c-0.97,0-1.64,0.67-1.64,1.64
		v3.87c0,0.97,0.67,1.64,1.64,1.64h2.55v10.9c0,0.97,0.67,1.64,1.64,1.64h4.22c0.97,0,1.64-0.67,1.64-1.64v-10.9h5.34
		c0.97,0,1.64-0.67,1.64-1.64v-3.87C118.08,11.97,117.41,11.3,116.44,11.3z M116.58,16.81c0,0.09-0.02,0.12-0.02,0.12
		c0,0-0.04,0.02-0.12,0.02h-6.02c-0.5,0-0.82,0.32-0.82,0.82v11.58c0,0.09-0.02,0.12-0.02,0.12c0,0-0.04,0.02-0.12,0.02h-4.22
		c-0.09,0-0.12-0.02-0.12-0.02c0,0-0.02-0.03-0.02-0.12V17.77c0-0.5-0.32-0.82-0.82-0.82h-3.23c-0.09,0-0.12-0.02-0.12-0.02
		c0,0-0.02-0.03-0.02-0.12v-3.87c0-0.09,0.02-0.12,0.02-0.12c0,0,0,0,0,0c0,0,0.04-0.02,0.12-0.02h3.23c0.5,0,0.82-0.32,0.82-0.82
		v-0.7c0-4.43,2.04-6.41,6.6-6.41c1.66,0,3.11,0.32,4.45,0.97c0.14,0.08,0.13,0.11,0.08,0.21l-1.48,3.47
		c-0.02,0.04-0.03,0.07-0.04,0.08c-0.01-0.01-0.05-0.02-0.12-0.05c-0.75-0.37-1.58-0.56-2.54-0.56c-1.58,0-2.45,0.81-2.45,2.29v0.7
		c0,0.5,0.32,0.82,0.82,0.82h6.02c0.09,0,0.12,0.02,0.12,0.02c0,0,0.02,0.03,0.02,0.12V16.81z M35.99,21.02
		c-3.28,0-5.48,2.07-5.48,5.16c0,3.02,2.25,5.13,5.48,5.13c3.23,0,5.48-2.11,5.48-5.13C41.47,23.1,39.27,21.02,35.99,21.02z
		 M35.99,29.81c-2.42,0-3.98-1.42-3.98-3.63c0-2.22,1.56-3.66,3.98-3.66c2.42,0,3.98,1.44,3.98,3.66
		C39.97,28.39,38.41,29.81,35.99,29.81z M71.9,15.67c-1.22,0-2.17,0.47-2.84,1.39c-0.63,0.92-0.93,2.1-0.93,3.62
		c0,1.52,0.3,2.7,0.92,3.61c0.69,0.92,1.64,1.37,2.85,1.37c1.22,0,2.17-0.46,2.81-1.36c0.64-0.89,0.96-2.08,0.96-3.62
		c0-1.54-0.31-2.73-0.96-3.62C74.08,16.14,73.14,15.67,71.9,15.67z M73.49,23.43c-0.35,0.5-0.86,0.73-1.58,0.73
		c-0.74,0-1.24-0.23-1.6-0.71c-0.44-0.64-0.66-1.57-0.66-2.76c0-1.19,0.22-2.12,0.64-2.74c0.38-0.53,0.88-0.77,1.62-0.77
		c0.74,0,1.22,0.23,1.59,0.77c0.45,0.63,0.68,1.53,0.68,2.74S73.95,22.79,73.49,23.43z M16.89,15.97l-1.03-0.27
		c-0.15-0.05-0.3-0.08-0.45-0.08c-0.56,0-1.02,0.35-1.2,0.88c-0.82,2.34-1.57,2.53-2.32,2.53c-0.44,0-1.22-0.26-2.46-1.5
		c0,0-0.07-0.07-0.08-0.07c-0.89-0.86-1.38-1.33-2.53-1.8c-0.66-0.29-1.31-0.44-1.94-0.44c-2.73,0-4.69,1.86-5.82,5.56
		c-0.14,0.47-0.02,0.82,0.09,1.03c0.12,0.21,0.35,0.49,0.81,0.62l1.06,0.31c0.15,0.05,0.3,0.07,0.44,0.07c0.45,0,1.01-0.26,1.2-0.92
		c0.82-2.34,1.57-2.53,2.32-2.53c0.35,0,1.13,0.2,2.47,1.54c0.94,0.91,1.41,1.34,2.6,1.89c0.61,0.27,1.26,0.4,1.94,0.4
		c1.88,0,4.41-0.97,5.83-5.59C18.03,16.87,17.66,16.19,16.89,15.97z M11.99,21.71c-0.47,0-0.91-0.09-1.34-0.28
		C9.73,21,9.4,20.71,8.5,19.84c-1.32-1.32-2.47-1.96-3.52-1.96c-1.71,0-2.82,1.02-3.69,3.4l-0.74-0.22
		c0.93-2.91,2.35-4.32,4.33-4.32c0.42,0,0.86,0.1,1.34,0.31c0.92,0.38,1.26,0.71,2.09,1.5c1.36,1.36,2.51,1.99,3.58,1.99
		c1.71,0,2.81-1.01,3.68-3.37l0.75,0.2C15.4,20.26,13.94,21.71,11.99,21.71z M171.5,22.45c0.07-0.88,0.1-1.77,0.1-2.67
		c0-2.81-0.89-5.17-2.65-7c-1.77-1.84-4.05-2.77-6.8-2.77c-2.89,0-5.27,1.03-7.08,3.05c-1.78,1.99-2.69,4.55-2.69,7.61
		c0,3.05,0.99,5.62,2.94,7.64c1.95,1.98,4.47,2.99,7.5,2.99c2.98,0,5.6-0.76,7.81-2.26c0.71-0.5,0.92-1.3,0.54-2.13l-1.47-2.94h0.13
		C170.77,23.98,171.43,23.38,171.5,22.45z M159.66,22.48c-0.33,0-0.6,0.14-0.73,0.38c-0.12,0.21-0.11,0.45,0.02,0.67
		c0.68,1.4,2.12,2.13,4.27,2.13c1.77,0,3.4-0.43,4.83-1.29c0.1-0.05,0.16-0.06,0.17-0.06l1.62,3.28c0.06,0.14,0.04,0.16-0.06,0.23
		c-1.93,1.32-4.27,1.99-6.94,1.99c-2.61,0-4.77-0.85-6.43-2.54c-1.69-1.75-2.51-3.91-2.51-6.59c0-2.71,0.75-4.88,2.3-6.61
		c1.54-1.72,3.49-2.55,5.96-2.55c2.32,0,4.25,0.78,5.72,2.31c1.48,1.54,2.23,3.54,2.23,5.96c0,0.86-0.03,1.72-0.09,2.55
		c-0.01,0.09-0.03,0.12-0.03,0.13c0,0-0.04,0.02-0.14,0.02H159.66z M164.95,23.98c-0.56,0.12-1.14,0.18-1.75,0.18
		c-0.6,0-1.08-0.07-1.46-0.18H164.95z M208.95,1.47c-0.1-0.35-0.35-0.64-0.73-0.83l-0.99-0.46c-0.19-0.1-0.39-0.15-0.6-0.15
		c-0.25,0-0.73,0.08-1.11,0.65c-0.02,0.04-0.05,0.08-0.07,0.12l-15.54,31.76c-0.19,0.31-0.24,0.67-0.14,1.01
		c0.1,0.35,0.35,0.64,0.73,0.83l0.94,0.43c0.21,0.12,0.43,0.19,0.65,0.19c0.25,0,0.73-0.08,1.11-0.65c0.02-0.04,0.05-0.07,0.07-0.11
		l15.54-31.76C209,2.16,209.05,1.8,208.95,1.47z M192,33.42l-0.69-0.33l15.42-31.51l0.69,0.33L192,33.42z M127.41,10.48
		c3.11,0,5.13-1.84,5.13-4.68s-2.01-4.68-5.13-4.68c-3.12,0-5.13,1.84-5.13,4.68S124.29,10.48,127.41,10.48z M127.41,2.62
		c2.27,0,3.63,1.19,3.63,3.18c0,2.02-1.32,3.18-3.63,3.18c-2.31,0-3.63-1.16-3.63-3.18C123.78,3.81,125.14,2.62,127.41,2.62z
		 M162.15,15.67c-1.64,0-2.8,0.83-3.35,2.41c-0.14,0.31-0.06,0.56,0.04,0.7c0.1,0.14,0.29,0.32,0.69,0.32h5.15
		c0.32,0,0.51-0.14,0.61-0.26c0.1-0.12,0.22-0.33,0.17-0.66C165.05,16.54,163.87,15.67,162.15,15.67z M160.81,17.6
		c0.33-0.3,0.77-0.43,1.34-0.43c0.62,0,1.06,0.13,1.37,0.43H160.81z M186,18.18c0.31-0.17,0.55-0.45,0.69-0.81l1.47-3.35
		c0.36-0.8,0.11-1.63-0.69-2.14c-2.13-1.26-4.39-1.87-6.91-1.87c-5.15,0-8.1,2.51-8.1,6.89c0,4.13,2.19,6.36,6.92,7.04
		c0.83,0.11,1.38,0.21,1.73,0.3c-0.25,0.04-0.61,0.08-1.12,0.08c-1.74,0-3.28-0.38-4.61-1.13c-0.31-0.17-0.6-0.25-0.89-0.25
		c-0.62,0-1.14,0.38-1.37,1l-1.43,3.4c-0.38,0.83-0.09,1.68,0.71,2.12c2.22,1.23,4.77,1.85,7.59,1.85c5.53,0,8.97-2.85,8.97-7.43
		C188.96,20.95,187.74,19.23,186,18.18z M179.99,29.81c-2.56,0-4.87-0.56-6.86-1.67c-0.08-0.04-0.1-0.07-0.11-0.08
		c0-0.01,0-0.04,0.03-0.11l1.45-3.44l0.04-0.07c0.02,0.01,0.06,0.03,0.13,0.06c1.53,0.87,3.33,1.31,5.33,1.31
		c2.07,0,3.12-0.56,3.12-1.65c0-1.15-1.47-1.44-3.54-1.71c-3.99-0.57-5.61-2.18-5.61-5.55c0-4.45,3.59-5.39,6.6-5.39
		c2.24,0,4.25,0.54,6.15,1.66c0.15,0.09,0.13,0.12,0.09,0.23l-1.47,3.37l-0.04,0.08c-0.02-0.01-0.06-0.03-0.13-0.06
		c-1.52-0.85-3.16-1.28-4.85-1.28c-1.33,0-2,0.37-2,1.11c0,1.14,1.12,1.3,2.67,1.52c4.72,0.76,6.48,2.32,6.48,5.75
		C187.46,27.65,184.73,29.81,179.99,29.81z M137.03,24.58c-0.38-0.9-1.1-1-1.39-1c-0.25,0-0.51,0.06-0.79,0.19
		c-0.78,0.36-1.58,0.55-2.36,0.55c-1.32,0-1.43-0.53-1.43-1.18V12.71c0-0.97-0.67-1.64-1.64-1.64h-9.7c-0.97,0-1.64,0.67-1.64,1.64
		v3.87c0,0.97,0.67,1.64,1.64,1.64h3.83v5.3c0,5.27,2.89,7.94,8.58,7.94c2,0,3.83-0.42,5.63-1.31c0.8-0.44,1.09-1.27,0.73-2.13
		L137.03,24.58z M137.06,28.85c-1.54,0.75-3.15,1.12-4.91,1.12c-4.83,0-7.08-2.05-7.08-6.44v-5.98c0-0.5-0.32-0.82-0.82-0.82h-4.51
		c-0.09,0-0.12-0.02-0.12-0.02c0,0-0.02-0.03-0.02-0.12v-3.87c0-0.09,0.02-0.12,0.02-0.12c0,0,0.04-0.02,0.12-0.02h9.7
		c0.09,0,0.12,0.02,0.12,0.02c0,0,0.02,0.03,0.02,0.12v10.43c0,1.73,1.04,2.68,2.93,2.68c1.01,0,2.01-0.23,3-0.69
		c0.06-0.03,0.1-0.04,0.13-0.04c0,0.01,1.51,3.53,1.51,3.53C137.19,28.77,137.17,28.78,137.06,28.85z M152.17,24.58
		c-0.38-0.9-1.1-1-1.39-1c-0.25,0-0.51,0.06-0.76,0.18c-0.61,0.27-1.25,0.4-1.94,0.4c-0.91,0-0.95-0.3-0.95-0.79V5.67
		c0-0.97-0.67-1.64-1.64-1.64h-9.63c-0.97,0-1.64,0.67-1.64,1.64v3.87c0,0.97,0.67,1.64,1.64,1.64h3.77v12.57
		c0,5.02,2.59,7.56,7.69,7.56c1.98,0,3.83-0.45,5.56-1.37c0.78-0.5,1.03-1.31,0.67-2.09L152.17,24.58z M152.06,28.67
		c-1.41,0.75-3.02,1.14-4.75,1.14c-4.22,0-6.19-1.93-6.19-6.06V10.5c0-0.5-0.32-0.82-0.82-0.82h-4.45c-0.09,0-0.12-0.02-0.12-0.02
		c0,0-0.02-0.03-0.02-0.12V5.67c0-0.09,0.02-0.12,0.02-0.12c0,0,0.04-0.02,0.12-0.02h9.63c0.09,0,0.12,0.02,0.12,0.02
		c0,0,0.02,0.03,0.02,0.12v17.69c0,1.48,0.87,2.29,2.45,2.29c0.9,0,1.73-0.17,2.54-0.52c0.07-0.03,0.11-0.05,0.14-0.05
		c0,0.01,1.41,3.34,1.41,3.34C152.21,28.54,152.22,28.57,152.06,28.67z"/>
	<g clip-path="url(#mask_1_)">
		
			<radialGradient id="SVGID_1_" cx="59.3738" cy="2.7671" r="20" gradientTransform="matrix(0.8926 0.4508 -0.4508 0.8926 6.2502 -24.2379)" gradientUnits="userSpaceOnUse">
			<stop  offset="0" style="stop-color:#FFFFFF;stop-opacity:0"/>
			<stop  offset="0.6" style="stop-color:#FFFFFF;stop-opacity:0.1"/>
			<stop  offset="1" style="stop-color:#FFFFFF;stop-opacity:0.05"/>
		</radialGradient>
		<polygon fill="url(#SVGID_1_)" points="66.84,31.87 31.13,13.84 49.16,-21.87 84.87,-3.84 		"/>
		<radialGradient id="SVGID_2_" cx="103" cy="28" r="10" gradientUnits="userSpaceOnUse">
			<stop  offset="0" style="stop-color:#FFFFFF;stop-opacity:0"/>
			<stop  offset="0.6" style="stop-color:#FFFFFF;stop-opacity:0.1"/>
			<stop  offset="1" style="stop-color:#FFFFFF;stop-opacity:0.05"/>
		</radialGradient>
		<rect x="93" y="18" fill="url(#SVGID_2_)" width="20" height="20"/>
		<radialGradient id="SVGID_3_" cx="99" cy="1" r="10" gradientUnits="userSpaceOnUse">
			<stop  offset="0" style="stop-color:#FFFFFF;stop-opacity:0"/>
			<stop  offset="0.6" style="stop-color:#FFFFFF;stop-opacity:0.1"/>
			<stop  offset="1" style="stop-color:#FFFFFF;stop-opacity:0.05"/>
		</radialGradient>
		<rect x="89" y="-9" fill="url(#SVGID_3_)" width="20" height="20"/>
		<radialGradient id="SVGID_4_" cx="5" cy="19" r="5" gradientUnits="userSpaceOnUse">
			<stop  offset="0" style="stop-color:#FFFFFF;stop-opacity:0"/>
			<stop  offset="0.6" style="stop-color:#FFFFFF;stop-opacity:0.1"/>
			<stop  offset="1" style="stop-color:#FFFFFF;stop-opacity:0.05"/>
		</radialGradient>
		<rect y="14" fill="url(#SVGID_4_)" width="10" height="10"/>
		
			<radialGradient id="SVGID_5_" cx="160.6958" cy="-18.9277" r="40" gradientTransform="matrix(0.9986 -0.0536 0.0536 0.9986 0.5507 8.5193)" gradientUnits="userSpaceOnUse">
			<stop  offset="0" style="stop-color:#FFFFFF;stop-opacity:0"/>
			<stop  offset="0.6" style="stop-color:#FFFFFF;stop-opacity:0.1"/>
			<stop  offset="1" style="stop-color:#FFFFFF;stop-opacity:0.05"/>
		</radialGradient>
		<polygon fill="url(#SVGID_5_)" points="202.09,18.8 122.2,23.09 117.91,-56.8 197.8,-61.09 		"/>
		
			<radialGradient id="SVGID_6_" cx="195" cy="32" r="10" gradientTransform="matrix(0.9986 -0.0536 0.0536 0.9986 -1.4356 10.5048)" gradientUnits="userSpaceOnUse">
			<stop  offset="0" style="stop-color:#FFFFFF;stop-opacity:0"/>
			<stop  offset="0.6" style="stop-color:#FFFFFF;stop-opacity:0.1"/>
			<stop  offset="1" style="stop-color:#FFFFFF;stop-opacity:0.05"/>
		</radialGradient>
		<polygon fill="url(#SVGID_6_)" points="205.52,41.45 185.55,42.52 184.48,22.55 204.45,21.48 		"/>
		
			<radialGradient id="SVGID_7_" cx="146.1592" cy="7.4164" r="10" gradientTransform="matrix(0.9871 -0.1604 0.1604 0.9871 1.5434 23.1213)" gradientUnits="userSpaceOnUse">
			<stop  offset="0" style="stop-color:#FFFFFF;stop-opacity:0"/>
			<stop  offset="0.6" style="stop-color:#FFFFFF;stop-opacity:0.1"/>
			<stop  offset="1" style="stop-color:#FFFFFF;stop-opacity:0.05"/>
		</radialGradient>
		<polygon fill="url(#SVGID_7_)" points="158.47,15.27 138.73,18.47 135.53,-1.27 155.27,-4.47 		"/>
		
			<radialGradient id="SVGID_8_" cx="182.2785" cy="-6.4655" r="5" gradientTransform="matrix(0.8926 0.4508 -0.4508 0.8926 -0.6176 -45.4073)" gradientUnits="userSpaceOnUse">
			<stop  offset="0" style="stop-color:#FFFFFF;stop-opacity:0"/>
			<stop  offset="0.6" style="stop-color:#FFFFFF;stop-opacity:0.1"/>
			<stop  offset="1" style="stop-color:#FFFFFF;stop-opacity:0.05"/>
		</radialGradient>
		<polygon fill="url(#SVGID_8_)" points="167.21,37.72 158.28,33.21 162.79,24.28 171.72,28.79 		"/>
	</g>
</g>
</svg>
