<?xml version="1.0" encoding="utf-8"?>
<!-- Generator: Adobe Illustrator 23.0.3, SVG Export Plug-In . SVG Version: 6.00 Build 0)  -->
<svg version="1.1" id="Layer_1" xmlns="http://www.w3.org/2000/svg" xmlns:xlink="http://www.w3.org/1999/xlink" x="0px" y="0px"
	 width="208px" height="34px" viewBox="0 0 208 34" enable-background="new 0 0 208 34" xml:space="preserve">
<g id="logo_1_">
	<defs>
		<path id="mask" d="M192.37,33.8c-0.13,0.19-0.26,0.26-0.42,0.16l-1.02-0.48c-0.19-0.1-0.26-0.26-0.16-0.42l15.58-31.84
			c0.13-0.19,0.26-0.26,0.42-0.16l1.02,0.48c0.19,0.1,0.26,0.26,0.16,0.42L192.37,33.8z M172.88,28.58
			c-0.35-0.19-0.45-0.48-0.29-0.83l1.44-3.42c0.16-0.42,0.45-0.48,0.86-0.26c1.47,0.83,3.17,1.25,5.09,1.25
			c1.76,0,2.62-0.38,2.62-1.15c0-0.64-0.93-0.93-3.1-1.22c-4.26-0.61-6.05-2.43-6.05-6.05c0-3.84,2.53-5.89,7.1-5.89
			c2.34,0,4.45,0.58,6.4,1.73c0.35,0.22,0.45,0.51,0.29,0.86l-1.47,3.36c-0.16,0.42-0.45,0.48-0.86,0.26
			c-1.44-0.8-2.98-1.22-4.61-1.22c-0.99,0-1.5,0.19-1.5,0.61c0,0.61,0.45,0.77,2.24,1.02c4.58,0.74,6.91,2.27,6.91,6.24
			c0,4-2.94,6.43-7.97,6.43C177.33,30.31,174.96,29.73,172.88,28.58z M159.66,22.98h10.17c0.42,0,0.64-0.19,0.67-0.61
			c0.06-0.86,0.1-1.73,0.1-2.59c0-2.56-0.8-4.67-2.37-6.3c-1.57-1.63-3.62-2.46-6.08-2.46c-2.59,0-4.7,0.9-6.33,2.72
			s-2.43,4.13-2.43,6.94c0,2.82,0.9,5.12,2.66,6.94c1.76,1.79,4.03,2.69,6.78,2.69c2.78,0,5.22-0.7,7.23-2.08
			c0.32-0.22,0.38-0.51,0.22-0.87l-1.6-3.2c-0.16-0.38-0.48-0.45-0.9-0.22c-1.34,0.8-2.88,1.22-4.58,1.22
			c-1.95,0-3.23-0.64-3.84-1.89C159.27,23.11,159.43,22.98,159.66,22.98z M159.27,18.25c0.48-1.38,1.44-2.08,2.88-2.08
			c1.5,0,2.46,0.7,2.82,2.08c0.03,0.22-0.06,0.35-0.29,0.35h-5.15C159.24,18.6,159.18,18.47,159.27,18.25z M151.24,24.97l1.38,3.26
			c0.16,0.35,0.06,0.64-0.29,0.86c-1.5,0.8-3.2,1.22-5.02,1.22c-4.51,0-6.69-2.11-6.69-6.56V10.5c0-0.22-0.1-0.32-0.32-0.32h-4.45
			c-0.42,0-0.64-0.22-0.64-0.64V5.67c0-0.42,0.22-0.64,0.64-0.64h9.63c0.42,0,0.64,0.22,0.64,0.64v17.69c0,1.18,0.64,1.79,1.95,1.79
			c0.83,0,1.6-0.16,2.34-0.48C150.83,24.49,151.08,24.58,151.24,24.97z M124.56,23.53v-5.98c0-0.22-0.1-0.32-0.32-0.32h-4.51
			c-0.42,0-0.64-0.22-0.64-0.64v-3.87c0-0.42,0.22-0.64,0.64-0.64h9.7c0.42,0,0.64,0.22,0.64,0.64v10.43c0,1.44,0.8,2.18,2.43,2.18
			c0.96,0,1.89-0.22,2.78-0.64c0.42-0.19,0.67-0.1,0.83,0.29l1.47,3.46c0.16,0.38,0.06,0.67-0.29,0.86
			c-1.63,0.8-3.33,1.18-5.15,1.18C127.02,30.47,124.56,28.23,124.56,23.53z M127.41,2.12c2.56,0,4.13,1.41,4.13,3.68
			c0,2.3-1.57,3.68-4.13,3.68c-2.56,0-4.13-1.38-4.13-3.68C123.28,3.53,124.85,2.12,127.41,2.12z M105.24,29.99
			c-0.42,0-0.64-0.22-0.64-0.64V17.77c0-0.22-0.1-0.32-0.32-0.32h-3.23c-0.42,0-0.64-0.22-0.64-0.64v-3.87
			c0-0.42,0.22-0.64,0.64-0.64h3.23c0.22,0,0.32-0.1,0.32-0.32v-0.7c0-4.7,2.27-6.91,7.1-6.91c1.76,0,3.3,0.35,4.67,1.02
			c0.38,0.22,0.48,0.51,0.32,0.86l-1.47,3.46c-0.16,0.38-0.42,0.48-0.83,0.29c-0.7-0.35-1.47-0.51-2.34-0.51
			c-1.31,0-1.95,0.61-1.95,1.79v0.7c0,0.22,0.1,0.32,0.32,0.32h6.02c0.42,0,0.64,0.22,0.64,0.64v3.87c0,0.42-0.22,0.64-0.64,0.64
			h-6.02c-0.22,0-0.32,0.1-0.32,0.32v11.58c0,0.42-0.22,0.64-0.64,0.64H105.24z M97.48,25l1.41,3.26c0.16,0.38,0.06,0.67-0.32,0.86
			c-1.54,0.8-3.23,1.18-5.06,1.18c-4.64,0-6.85-2.11-6.85-6.46v-7.04c0-0.22-0.1-0.32-0.32-0.32h-3.81c-0.42,0-0.64-0.22-0.64-0.64
			v-3.87c0-0.42,0.22-0.64,0.64-0.64h3.81c0.22,0,0.32-0.1,0.32-0.32V6.7c0-0.42,0.22-0.64,0.64-0.64h4.22
			c0.42,0,0.64,0.22,0.64,0.64v4.32c0,0.22,0.1,0.32,0.32,0.32h5.12c0.42,0,0.64,0.22,0.64,0.64v3.87c0,0.42-0.22,0.64-0.64,0.64
			h-5.12c-0.22,0-0.32,0.1-0.32,0.32v6.66c0,1.12,0.67,1.7,2.05,1.7c0.86,0,1.7-0.16,2.43-0.48C97.07,24.52,97.32,24.61,97.48,25z
			 M78.33,13.58c-1.54-1.7-3.68-2.56-6.43-2.56c-2.75,0-4.9,0.86-6.46,2.56c-1.54,1.7-2.3,4.06-2.3,7.1c0,3.04,0.77,5.41,2.34,7.1
			c1.57,1.7,3.71,2.53,6.43,2.53c2.72,0,4.86-0.83,6.43-2.53c1.57-1.7,2.34-4.06,2.34-7.1C80.67,17.64,79.9,15.27,78.33,13.58z
			 M74.3,24.01c-0.54,0.77-1.34,1.15-2.4,1.15c-1.06,0-1.86-0.38-2.43-1.15c-0.54-0.8-0.83-1.89-0.83-3.33s0.29-2.53,0.83-3.33
			c0.58-0.8,1.38-1.18,2.43-1.18c1.06,0,1.86,0.38,2.4,1.18c0.58,0.8,0.86,1.89,0.86,3.33S74.88,23.21,74.3,24.01z M60.21,5.03
			h-4.22c-0.42,0-0.64,0.22-0.64,0.64v5.63c0,0.29-0.13,0.35-0.38,0.26c-0.86-0.35-1.82-0.54-2.91-0.54c-2.4,0-4.32,0.86-5.73,2.59
			c-1.41,1.73-2.11,4.1-2.11,7.07c0,2.98,0.7,5.31,2.11,7.04c1.41,1.73,3.33,2.59,5.73,2.59c1.44,0,2.66-0.35,3.65-1.06
			c0.26-0.19,0.38-0.13,0.38,0.19v0.03c0,0.35,0.22,0.51,0.64,0.51h3.49c0.42,0,0.64-0.22,0.64-0.64V5.67
			C60.85,5.26,60.63,5.03,60.21,5.03z M55.35,24.23c0,0.16-0.06,0.29-0.19,0.42C54.61,25,54,25.16,53.33,25.16
			c-2.21,0-3.62-1.66-3.62-4.48c0-2.82,1.41-4.51,3.62-4.51c0.61,0,1.22,0.13,1.79,0.38c0.16,0.1,0.22,0.22,0.22,0.38V24.23z
			 M35.99,22.02c2.69,0,4.48,1.63,4.48,4.16c0,2.46-1.79,4.13-4.48,4.13c-2.69,0-4.48-1.66-4.48-4.13
			C31.51,23.65,33.31,22.02,35.99,22.02z M18.64,33.8c-0.13,0.19-0.26,0.26-0.42,0.16l-1.02-0.48c-0.19-0.1-0.26-0.26-0.16-0.42
			L32.63,1.22c0.13-0.19,0.26-0.26,0.42-0.16l1.02,0.48c0.19,0.1,0.26,0.26,0.16,0.42L18.64,33.8z M0.25,21.48
			c-0.22-0.06-0.29-0.19-0.22-0.42c0.99-3.23,2.59-4.83,4.86-4.83c0.51,0,1.02,0.13,1.54,0.35c1.02,0.42,1.41,0.8,2.3,1.66
			c1.18,1.18,2.24,1.79,3.17,1.79c1.54,0,2.46-0.93,3.26-3.2c0.06-0.19,0.19-0.26,0.38-0.19l1.09,0.29
			c0.22,0.06,0.29,0.19,0.22,0.42c-0.99,3.23-2.62,4.86-4.86,4.86c-0.51,0-1.02-0.1-1.54-0.32c-1.02-0.48-1.41-0.83-2.3-1.7
			c-1.22-1.22-2.27-1.82-3.17-1.82c-1.54,0-2.46,0.93-3.26,3.2c-0.06,0.22-0.19,0.29-0.38,0.22L0.25,21.48z"/>
	</defs>
	<clipPath id="mask_1_">
		<use xlink:href="#mask"  overflow="visible"/>
	</clipPath>
	<rect id="background" clip-path="url(#mask_1_)" fill="#0A2933" width="208" height="34"/>
	<linearGradient id="gradient_1_" gradientUnits="userSpaceOnUse" x1="104" y1="34" x2="104" y2="-9.094947e-13">
		<stop  offset="0.2" style="stop-color:#708284;stop-opacity:0.3"/>
		<stop  offset="0.2825" style="stop-color:#708284;stop-opacity:0.2587"/>
		<stop  offset="0.8" style="stop-color:#708284;stop-opacity:0"/>
	</linearGradient>
	<rect id="gradient" clip-path="url(#mask_1_)" fill="url(#gradient_1_)" width="208" height="34"/>
	<linearGradient id="outline_1_" gradientUnits="userSpaceOnUse" x1="-2.0012" y1="17.509" x2="210.0012" y2="17.509">
		<stop  offset="0" style="stop-color:#042029"/>
		<stop  offset="0.6" style="stop-color:#042029;stop-opacity:0.3"/>
	</linearGradient>
	<path id="outline" clip-path="url(#mask_1_)" fill="url(#outline_1_)" d="M55.25,16.34c-0.63-0.28-1.27-0.42-1.92-0.42
		c-2.38,0-3.87,1.82-3.87,4.76c0,2.92,1.48,4.73,3.87,4.73c0.73,0,1.39-0.19,1.96-0.55c0.22-0.22,0.31-0.4,0.31-0.63v-7.3
		C55.6,16.68,55.48,16.47,55.25,16.34z M53.35,23.16c-0.01,0-0.01,0-0.02,0c-1.07,0-1.62-0.83-1.62-2.48c0-1.15,0.28-2.51,1.62-2.51
		c0.01,0,0.01,0,0.02,0V23.16z M71.9,15.92c-1.15,0-2.01,0.42-2.63,1.29c-0.59,0.87-0.88,2.01-0.88,3.47s0.29,2.6,0.88,3.47
		c0.63,0.84,1.52,1.26,2.64,1.26c1.14,0,2.01-0.42,2.6-1.26c0.61-0.85,0.91-1.99,0.91-3.47s-0.3-2.62-0.91-3.47
		C73.93,16.35,73.05,15.92,71.9,15.92z M72.67,22.85c-0.09,0.13-0.22,0.31-0.77,0.31c-0.52,0-0.69-0.17-0.78-0.28
		c-0.32-0.47-0.49-1.21-0.49-2.2c0-0.99,0.16-1.73,0.45-2.16c0.14-0.2,0.29-0.35,0.81-0.35c0.54,0,0.65,0.17,0.78,0.35
		c0.32,0.45,0.49,1.17,0.49,2.16C73.17,21.66,73,22.39,72.67,22.85z M18.78,17.9c0.37-1.28-0.32-2.52-1.64-2.9l-1.05-0.28
		c-0.23-0.07-0.46-0.1-0.68-0.1c-0.99,0-1.83,0.62-2.14,1.55c-0.66,1.86-1.07,1.86-1.38,1.86c-0.02,0-0.56-0.01-1.75-1.21
		l-0.09-0.09c-0.91-0.88-1.52-1.46-2.83-2c-0.79-0.34-1.57-0.52-2.34-0.52c-2.22,0-5.19,1.08-6.79,6.28
		c-0.23,0.8-0.03,1.42,0.18,1.79c0.29,0.53,0.8,0.92,1.4,1.09l1.03,0.3c0.25,0.08,0.5,0.12,0.76,0.12c1,0,1.84-0.63,2.16-1.62
		c0.65-1.83,1.06-1.83,1.36-1.83c0.01,0,0.56,0.04,1.78,1.26c0.97,0.94,1.54,1.46,2.89,2.09c0.74,0.32,1.53,0.49,2.34,0.49
		C14.2,24.21,17.17,23.13,18.78,17.9z M11.99,21.96c-0.5,0-0.97-0.1-1.44-0.3c-0.97-0.45-1.33-0.78-2.23-1.65
		c-1.27-1.27-2.37-1.89-3.34-1.89c-1.64,0-2.66,0.98-3.5,3.37l-0.08,0.07l-1.09-0.32l-0.06-0.1c0.96-3.13,2.47-4.65,4.62-4.65
		c0.46,0,0.93,0.11,1.44,0.33c0.96,0.39,1.31,0.73,2.17,1.55c1.32,1.31,2.41,1.92,3.41,1.92c1.64,0,2.66-0.98,3.5-3.37l1.17,0.25
		l0.05,0.1C15.66,20.39,14.1,21.96,11.99,21.96z M36.18,1.19C36,0.56,35.57,0.06,34.92-0.27l-0.97-0.46
		c-0.33-0.17-0.68-0.26-1.04-0.26c-0.36,0-1.28,0.11-1.94,1.09l-0.13,0.23L15.27,32.14c-0.28,0.53-0.35,1.13-0.18,1.7
		c0.18,0.62,0.62,1.13,1.26,1.45l0.97,0.46c0.33,0.17,0.68,0.26,1.04,0.26c0.36,0,1.28-0.11,1.94-1.1l0.13-0.23L36,2.88
		C36.28,2.35,36.35,1.76,36.18,1.19z M18.42,33.69c-0.02,0.03-0.04,0.05-0.06,0.06l-1.05-0.5L32.85,1.33
		c0.04-0.05,0.07-0.07,0.07-0.07l1.04,0.5L18.42,33.69z M35.99,20.02c-3.81,0-6.48,2.53-6.48,6.16c0,3.61,2.66,6.13,6.48,6.13
		c3.82,0,6.48-2.52,6.48-6.13C42.47,22.56,39.81,20.02,35.99,20.02z M35.99,30.06c-2.53,0-4.23-1.56-4.23-3.88
		c0-2.38,1.66-3.91,4.23-3.91c2.57,0,4.23,1.53,4.23,3.91C40.22,28.5,38.52,30.06,35.99,30.06z M209.91,1.18
		c-0.18-0.62-0.62-1.13-1.26-1.45l-0.97-0.46c-0.33-0.17-0.68-0.26-1.04-0.26c-0.36,0-1.28,0.11-1.94,1.09l-0.13,0.23L189,32.14
		c-0.28,0.52-0.34,1.13-0.18,1.69c0.18,0.62,0.62,1.13,1.27,1.46l0.97,0.46c0.33,0.17,0.68,0.26,1.04,0.26
		c0.36,0,1.28-0.11,1.94-1.1l0.13-0.23l15.56-31.79C210.01,2.35,210.08,1.75,209.91,1.18z M192.15,33.69
		c-0.02,0.03-0.04,0.05-0.06,0.06l-1.05-0.5l15.54-31.92c0.04-0.05,0.07-0.07,0.07-0.07l1.04,0.5L192.15,33.69z M165.22,18.21
		c0.03,0.24-0.04,0.38-0.11,0.46c-0.07,0.08-0.2,0.17-0.42,0.17h-5.15c-0.23,0-0.39-0.07-0.48-0.21c-0.09-0.13-0.09-0.3-0.01-0.48
		c0.52-1.49,1.57-2.25,3.12-2.25C163.77,15.92,164.83,16.7,165.22,18.21z M187.5,18.01c0.04-0.08,0.08-0.16,0.11-0.25l1.46-3.33
		c0.57-1.26,0.16-2.62-1.09-3.41c-2.26-1.33-4.75-2.01-7.42-2.01c-4.93,0-8.14,2.2-8.92,5.99c-0.48-1.07-1.14-2.05-1.97-2.92
		c-1.94-2.01-4.54-3.08-7.52-3.08c-3.18,0-5.82,1.14-7.83,3.39c-1.95,2.18-2.94,4.97-2.94,8.28c0,0.7,0.05,1.37,0.14,2.02
		c-0.24-0.08-0.49-0.12-0.75-0.12c-0.39,0-0.8,0.09-1.16,0.26c-0.47,0.21-0.96,0.31-1.49,0.31V5.67c0-1.53-1.11-2.64-2.64-2.64
		h-9.63c-1.13,0-2.04,0.61-2.43,1.55c-0.52-2.71-2.81-4.46-6.01-4.46c-3.67,0-6.13,2.28-6.13,5.68c0,1.79,0.68,3.27,1.87,4.27h-3.42
		c-0.71,0-1.33,0.24-1.79,0.65c-0.24-0.16-0.52-0.28-0.82-0.35l1.4-3.3c0.59-1.3,0.14-2.68-1.13-3.42l-0.13-0.07
		c-1.67-0.81-3.53-1.23-5.55-1.23c-5.61,0-8.73,2.74-9.07,7.94h-1.58c-0.43,0-0.83,0.09-1.18,0.25c-0.45-0.74-1.27-1.21-2.26-1.21
		h-3.44V6.7c0-1.53-1.11-2.64-2.64-2.64h-4.22c-1.53,0-2.64,1.11-2.64,2.64v2.64h-2.13c-1.53,0-2.64,1.11-2.64,2.64v0.35
		c-0.03-0.03-0.06-0.06-0.08-0.09c-1.93-2.13-4.6-3.22-7.91-3.22c-3.3,0-5.97,1.08-7.95,3.22c-0.41,0.46-0.78,0.95-1.11,1.49V5.67
		c0-1.53-1.11-2.64-2.64-2.64h-4.22c-1.53,0-2.64,1.11-2.64,2.64v3.42c-0.42-0.05-0.86-0.08-1.3-0.08c-2.99,0-5.5,1.15-7.28,3.33
		c-1.7,2.09-2.56,4.89-2.56,8.33c0,3.42,0.86,6.22,2.56,8.3c1.77,2.18,4.29,3.33,7.28,3.33c1.22,0,2.34-0.21,3.35-0.63
		c0.38,0.2,0.83,0.31,1.32,0.31h3.49c1.53,0,2.64-1.11,2.64-2.64v-1.74c0.34,0.55,0.72,1.06,1.15,1.53c1.94,2.1,4.6,3.17,7.9,3.17
		s5.96-1.07,7.9-3.17c1.9-2.06,2.87-4.9,2.87-8.46c0-0.76-0.04-1.49-0.13-2.19c0,0,2.13,0,2.13,0v5.36c0,5.46,3.14,8.46,8.85,8.46
		c2.17,0,4.18-0.47,5.95-1.4c1.31-0.66,1.83-2.06,1.26-3.44l-1.4-3.24c-0.42-1.02-1.3-1.62-2.34-1.62c-0.34,0-0.7,0.07-1.14,0.24
		c-0.47,0.21-1.04,0.31-1.63,0.31c-0.02,0-0.03,0-0.05,0v-4.67h3.44c0.43,0,0.83-0.09,1.18-0.25c0.45,0.74,1.27,1.21,2.26,1.21h1.55
		v9.9c0,1.53,1.11,2.64,2.64,2.64h4.22c1.53,0,2.64-1.11,2.64-2.64v-9.9h4.34c0.71,0,1.33-0.24,1.79-0.65
		c0.42,0.27,0.93,0.42,1.5,0.42h2.83v4.3c0,4.08,1.66,8.94,9.58,8.94c2.15,0,4.13-0.45,6.11-1.43c1-0.54,1.51-1.54,1.38-2.61
		c1.33,2.53,3.94,3.88,7.67,3.88c2.15,0,4.15-0.49,5.96-1.45l0.14-0.08c0.67-0.43,1.09-1.05,1.24-1.72
		c2.14,2.16,4.89,3.25,8.18,3.25c3.19,0,6-0.82,8.38-2.44c0.02-0.01,0.03-0.02,0.05-0.03c0.19,0.19,0.41,0.36,0.67,0.5
		c2.37,1.31,5.08,1.98,8.07,1.98c6.05,0,9.97-3.31,9.97-8.43C189.96,21.07,188.97,19.24,187.5,18.01z M60.6,29.35
		c0,0.28-0.11,0.39-0.39,0.39h-3.49c-0.39,0-0.39-0.15-0.39-0.26c0-0.54-0.31-0.58-0.4-0.58c-0.12,0-0.24,0.05-0.38,0.16
		c-0.94,0.67-2.12,1.01-3.5,1.01c-2.32,0-4.18-0.84-5.53-2.5c-1.36-1.67-2.06-3.99-2.06-6.88c0-2.91,0.69-5.24,2.06-6.91
		c1.35-1.66,3.21-2.5,5.53-2.5c1.03,0,1.95,0.17,2.82,0.53c0.11,0.04,0.2,0.06,0.28,0.06c0.1,0,0.45-0.04,0.45-0.55V5.67
		c0-0.28,0.11-0.39,0.39-0.39h4.22c0.28,0,0.39,0.11,0.39,0.39V29.35z M78.15,27.61c-1.52,1.65-3.57,2.45-6.25,2.45
		s-4.73-0.8-6.25-2.45c-1.51-1.63-2.27-3.96-2.27-6.93c0-2.96,0.75-5.29,2.24-6.94c1.52-1.64,3.63-2.48,6.28-2.48
		c2.66,0,4.76,0.83,6.25,2.48c1.51,1.63,2.27,3.96,2.27,6.94S79.66,25.98,78.15,27.61z M98,15.85c0,0.28-0.11,0.39-0.39,0.39h-5.12
		c-0.36,0-0.57,0.21-0.57,0.57v6.66c0,0.89,0.4,1.95,2.3,1.95c0.9,0,1.78-0.17,2.53-0.5c0.09-0.03,0.17-0.05,0.24-0.05
		c0.06,0,0.16,0,0.26,0.24l1.41,3.27c0.11,0.27,0.06,0.41-0.2,0.54c-1.48,0.77-3.14,1.16-4.94,1.16c-4.5,0-6.6-1.97-6.6-6.21v-7.04
		c0-0.36-0.21-0.57-0.57-0.57h-3.81c-0.28,0-0.39-0.11-0.39-0.39v-3.87c0-0.28,0.11-0.39,0.39-0.39h3.81c0.36,0,0.57-0.21,0.57-0.57
		V6.7c0-0.28,0.11-0.39,0.39-0.39h4.22c0.28,0,0.39,0.11,0.39,0.39v4.32c0,0.36,0.21,0.57,0.57,0.57h5.12
		c0.28,0,0.39,0.11,0.39,0.39V15.85z M116.83,16.81c0,0.28-0.11,0.39-0.39,0.39h-6.02c-0.36,0-0.57,0.21-0.57,0.57v11.58
		c0,0.28-0.11,0.39-0.39,0.39h-4.22c-0.28,0-0.39-0.11-0.39-0.39V17.77c0-0.36-0.21-0.57-0.57-0.57h-3.23
		c-0.28,0-0.39-0.11-0.39-0.39v-3.87c0-0.28,0.11-0.39,0.39-0.39h3.23c0.36,0,0.57-0.21,0.57-0.57v-0.7c0-4.54,2.18-6.66,6.85-6.66
		c1.69,0,3.19,0.33,4.56,1c0.29,0.17,0.29,0.33,0.2,0.54L115,9.61c-0.1,0.23-0.19,0.23-0.24,0.23c-0.07,0-0.16-0.02-0.26-0.07
		c-0.72-0.36-1.52-0.54-2.44-0.54c-1.82,0-2.2,1.11-2.2,2.04v0.7c0,0.36,0.21,0.57,0.57,0.57h6.02c0.28,0,0.39,0.11,0.39,0.39V16.81
		z M127.41,2.37c2.43,0,3.88,1.28,3.88,3.43s-1.45,3.43-3.88,3.43c-2.43,0-3.88-1.28-3.88-3.43S124.98,2.37,127.41,2.37z
		 M137.17,29.07c-1.58,0.78-3.23,1.15-5.03,1.15c-5,0-7.33-2.13-7.33-6.69v-5.98c0-0.36-0.21-0.57-0.57-0.57h-4.51
		c-0.28,0-0.39-0.11-0.39-0.39v-3.87c0-0.28,0.11-0.39,0.39-0.39h9.7c0.28,0,0.39,0.11,0.39,0.39v10.43c0,1.11,0.46,2.43,2.68,2.43
		c0.97,0,1.94-0.22,2.89-0.66c0.1-0.05,0.19-0.07,0.26-0.07c0.05,0,0.14,0,0.24,0.23l1.47,3.46
		C137.46,28.78,137.41,28.94,137.17,29.07z M137.96,24.2c-0.42-1.01-1.29-1.62-2.31-1.62c-0.39,0-0.8,0.09-1.21,0.28
		c-0.66,0.31-1.29,0.45-1.94,0.45c-0.21,0-0.34-0.02-0.43-0.04c0-0.04-0.01-0.08-0.01-0.14V12.71c0-0.92-0.41-1.69-1.06-2.16
		c1.04-0.64,1.81-1.58,2.21-2.75v1.74c0,1.53,1.11,2.64,2.64,2.64h2.77v11.57c0,0.96,0.09,1.85,0.28,2.66L137.96,24.2z M152.2,28.88
		c-1.46,0.78-3.11,1.18-4.89,1.18c-4.39,0-6.44-2-6.44-6.31V10.5c0-0.36-0.21-0.57-0.57-0.57h-4.45c-0.28,0-0.39-0.11-0.39-0.39
		V5.67c0-0.28,0.11-0.39,0.39-0.39h9.63c0.28,0,0.39,0.11,0.39,0.39v17.69c0,0.93,0.38,2.04,2.2,2.04c0.86,0,1.66-0.16,2.44-0.5
		c0.11-0.05,0.2-0.08,0.26-0.08c0.05,0,0.14,0,0.24,0.23l1.38,3.26C152.48,28.53,152.48,28.7,152.2,28.88z M170.25,22.36
		c-0.02,0.28-0.13,0.38-0.42,0.38h-10.17c-0.23,0-0.43,0.09-0.52,0.25c-0.07,0.13-0.07,0.28,0.01,0.41
		c0.64,1.33,2.01,2.01,4.05,2.01c1.73,0,3.31-0.42,4.7-1.25c0.11-0.06,0.22-0.09,0.3-0.09c0.05,0,0.15,0,0.24,0.2l1.61,3.21
		c0.11,0.24,0.07,0.4-0.14,0.55c-1.98,1.35-4.36,2.03-7.09,2.03c-2.68,0-4.9-0.88-6.6-2.61c-1.71-1.78-2.58-4.05-2.58-6.77
		c0-2.78,0.77-5,2.37-6.78c1.59-1.77,3.6-2.64,6.15-2.64c2.39,0,4.38,0.8,5.9,2.39c1.52,1.59,2.3,3.65,2.3,6.13
		C170.35,20.65,170.32,21.51,170.25,22.36z M171.47,25.27l-0.31-0.61c0.38-0.21,0.7-0.51,0.93-0.88L171.47,25.27z M172.38,23.17
		c0.06-0.2,0.1-0.42,0.12-0.65c0.03-0.39,0.05-0.79,0.07-1.19c0.21,0.33,0.44,0.64,0.71,0.93C172.91,22.48,172.6,22.79,172.38,23.17
		z M179.99,30.06c-2.6,0-4.95-0.57-6.98-1.7c-0.24-0.13-0.29-0.28-0.18-0.51l1.44-3.43c0.09-0.23,0.18-0.23,0.22-0.23
		c0.05,0,0.14,0.02,0.29,0.1c1.5,0.85,3.25,1.28,5.21,1.28c0.71,0,2.87,0,2.87-1.4c0-0.87-1.12-1.17-3.32-1.46
		c-4.09-0.58-5.83-2.32-5.83-5.8c0-3.69,2.37-5.64,6.85-5.64c2.29,0,4.34,0.55,6.27,1.69c0.28,0.18,0.28,0.35,0.19,0.54l-1.47,3.36
		c-0.09,0.23-0.18,0.23-0.22,0.23c-0.05,0-0.14-0.02-0.29-0.1c-1.49-0.83-3.08-1.25-4.73-1.25c-0.43,0-1.75,0-1.75,0.86
		c0,0.88,0.8,1.03,2.46,1.27c4.82,0.77,6.7,2.46,6.7,5.99C187.71,27.75,184.82,30.06,179.99,30.06z"/>
</g>
</svg>
