<?xml version="1.0" encoding="utf-8"?>
<!-- Generator: Adobe Illustrator 23.0.3, SVG Export Plug-In . SVG Version: 6.00 Build 0)  -->
<svg version="1.1" id="Layer_1" xmlns="http://www.w3.org/2000/svg" xmlns:xlink="http://www.w3.org/1999/xlink" x="0px" y="0px"
	 width="208px" height="34px" viewBox="0 0 208 34" enable-background="new 0 0 208 34" xml:space="preserve">
<g id="logo">
	<path d="M192.37,33.8c-0.13,0.19-0.26,0.26-0.42,0.16l-1.02-0.48c-0.19-0.1-0.26-0.26-0.16-0.42l15.58-31.84
		c0.13-0.19,0.26-0.26,0.42-0.16l1.02,0.48c0.19,0.1,0.26,0.26,0.16,0.42L192.37,33.8z M172.88,28.58
		c-0.35-0.19-0.45-0.48-0.29-0.83l1.44-3.42c0.16-0.42,0.45-0.48,0.86-0.26c1.47,0.83,3.17,1.25,5.09,1.25
		c1.76,0,2.62-0.38,2.62-1.15c0-0.64-0.93-0.93-3.1-1.22c-4.26-0.61-6.05-2.43-6.05-6.05c0-3.84,2.53-5.89,7.1-5.89
		c2.34,0,4.45,0.58,6.4,1.73c0.35,0.22,0.45,0.51,0.29,0.86l-1.47,3.36c-0.16,0.42-0.45,0.48-0.86,0.26
		c-1.44-0.8-2.98-1.22-4.61-1.22c-0.99,0-1.5,0.19-1.5,0.61c0,0.61,0.45,0.77,2.24,1.02c4.58,0.74,6.91,2.27,6.91,6.24
		c0,4-2.94,6.43-7.97,6.43C177.33,30.31,174.96,29.73,172.88,28.58z M159.66,22.98h10.17c0.42,0,0.64-0.19,0.67-0.61
		c0.06-0.86,0.1-1.73,0.1-2.59c0-2.56-0.8-4.67-2.37-6.3c-1.57-1.63-3.62-2.46-6.08-2.46c-2.59,0-4.7,0.9-6.33,2.72
		s-2.43,4.13-2.43,6.94c0,2.82,0.9,5.12,2.66,6.94c1.76,1.79,4.03,2.69,6.78,2.69c2.78,0,5.22-0.7,7.23-2.08
		c0.32-0.22,0.38-0.51,0.22-0.87l-1.6-3.2c-0.16-0.38-0.48-0.45-0.9-0.22c-1.34,0.8-2.88,1.22-4.58,1.22
		c-1.95,0-3.23-0.64-3.84-1.89C159.27,23.11,159.43,22.98,159.66,22.98z M159.27,18.25c0.48-1.38,1.44-2.08,2.88-2.08
		c1.5,0,2.46,0.7,2.82,2.08c0.03,0.22-0.06,0.35-0.29,0.35h-5.15C159.24,18.6,159.18,18.47,159.27,18.25z M151.24,24.97l1.38,3.26
		c0.16,0.35,0.06,0.64-0.29,0.86c-1.5,0.8-3.2,1.22-5.02,1.22c-4.51,0-6.69-2.11-6.69-6.56V10.5c0-0.22-0.1-0.32-0.32-0.32h-4.45
		c-0.42,0-0.64-0.22-0.64-0.64V5.67c0-0.42,0.22-0.64,0.64-0.64h9.63c0.42,0,0.64,0.22,0.64,0.64v17.69c0,1.18,0.64,1.79,1.95,1.79
		c0.83,0,1.6-0.16,2.34-0.48C150.83,24.49,151.08,24.58,151.24,24.97z M124.56,23.53v-5.98c0-0.22-0.1-0.32-0.32-0.32h-4.51
		c-0.42,0-0.64-0.22-0.64-0.64v-3.87c0-0.42,0.22-0.64,0.64-0.64h9.7c0.42,0,0.64,0.22,0.64,0.64v10.43c0,1.44,0.8,2.18,2.43,2.18
		c0.96,0,1.89-0.22,2.78-0.64c0.42-0.19,0.67-0.1,0.83,0.29l1.47,3.46c0.16,0.38,0.06,0.67-0.29,0.86c-1.63,0.8-3.33,1.18-5.15,1.18
		C127.02,30.47,124.56,28.23,124.56,23.53z M127.41,2.12c2.56,0,4.13,1.41,4.13,3.68c0,2.3-1.57,3.68-4.13,3.68
		c-2.56,0-4.13-1.38-4.13-3.68C123.28,3.53,124.85,2.12,127.41,2.12z M105.24,29.99c-0.42,0-0.64-0.22-0.64-0.64V17.77
		c0-0.22-0.1-0.32-0.32-0.32h-3.23c-0.42,0-0.64-0.22-0.64-0.64v-3.87c0-0.42,0.22-0.64,0.64-0.64h3.23c0.22,0,0.32-0.1,0.32-0.32
		v-0.7c0-4.7,2.27-6.91,7.1-6.91c1.76,0,3.3,0.35,4.67,1.02c0.38,0.22,0.48,0.51,0.32,0.86l-1.47,3.46
		c-0.16,0.38-0.42,0.48-0.83,0.29c-0.7-0.35-1.47-0.51-2.34-0.51c-1.31,0-1.95,0.61-1.95,1.79v0.7c0,0.22,0.1,0.32,0.32,0.32h6.02
		c0.42,0,0.64,0.22,0.64,0.64v3.87c0,0.42-0.22,0.64-0.64,0.64h-6.02c-0.22,0-0.32,0.1-0.32,0.32v11.58c0,0.42-0.22,0.64-0.64,0.64
		H105.24z M97.48,25l1.41,3.26c0.16,0.38,0.06,0.67-0.32,0.86c-1.54,0.8-3.23,1.18-5.06,1.18c-4.64,0-6.85-2.11-6.85-6.46v-7.04
		c0-0.22-0.1-0.32-0.32-0.32h-3.81c-0.42,0-0.64-0.22-0.64-0.64v-3.87c0-0.42,0.22-0.64,0.64-0.64h3.81c0.22,0,0.32-0.1,0.32-0.32
		V6.7c0-0.42,0.22-0.64,0.64-0.64h4.22c0.42,0,0.64,0.22,0.64,0.64v4.32c0,0.22,0.1,0.32,0.32,0.32h5.12c0.42,0,0.64,0.22,0.64,0.64
		v3.87c0,0.42-0.22,0.64-0.64,0.64h-5.12c-0.22,0-0.32,0.1-0.32,0.32v6.66c0,1.12,0.67,1.7,2.05,1.7c0.86,0,1.7-0.16,2.43-0.48
		C97.07,24.52,97.32,24.61,97.48,25z M78.33,13.58c-1.54-1.7-3.68-2.56-6.43-2.56c-2.75,0-4.9,0.86-6.46,2.56
		c-1.54,1.7-2.3,4.06-2.3,7.1c0,3.04,0.77,5.41,2.34,7.1c1.57,1.7,3.71,2.53,6.43,2.53c2.72,0,4.86-0.83,6.43-2.53
		c1.57-1.7,2.34-4.06,2.34-7.1C80.67,17.64,79.9,15.27,78.33,13.58z M74.3,24.01c-0.54,0.77-1.34,1.15-2.4,1.15
		c-1.06,0-1.86-0.38-2.43-1.15c-0.54-0.8-0.83-1.89-0.83-3.33s0.29-2.53,0.83-3.33c0.58-0.8,1.38-1.18,2.43-1.18
		c1.06,0,1.86,0.38,2.4,1.18c0.58,0.8,0.86,1.89,0.86,3.33S74.88,23.21,74.3,24.01z M60.21,5.03h-4.22c-0.42,0-0.64,0.22-0.64,0.64
		v5.63c0,0.29-0.13,0.35-0.38,0.26c-0.86-0.35-1.82-0.54-2.91-0.54c-2.4,0-4.32,0.86-5.73,2.59c-1.41,1.73-2.11,4.1-2.11,7.07
		c0,2.98,0.7,5.31,2.11,7.04c1.41,1.73,3.33,2.59,5.73,2.59c1.44,0,2.66-0.35,3.65-1.06c0.26-0.19,0.38-0.13,0.38,0.19v0.03
		c0,0.35,0.22,0.51,0.64,0.51h3.49c0.42,0,0.64-0.22,0.64-0.64V5.67C60.85,5.26,60.63,5.03,60.21,5.03z M55.35,24.23
		c0,0.16-0.06,0.29-0.19,0.42C54.61,25,54,25.16,53.33,25.16c-2.21,0-3.62-1.66-3.62-4.48c0-2.82,1.41-4.51,3.62-4.51
		c0.61,0,1.22,0.13,1.79,0.38c0.16,0.1,0.22,0.22,0.22,0.38V24.23z M35.99,22.02c2.69,0,4.48,1.63,4.48,4.16
		c0,2.46-1.79,4.13-4.48,4.13c-2.69,0-4.48-1.66-4.48-4.13C31.51,23.65,33.31,22.02,35.99,22.02z M18.64,33.8
		c-0.13,0.19-0.26,0.26-0.42,0.16l-1.02-0.48c-0.19-0.1-0.26-0.26-0.16-0.42L32.63,1.22c0.13-0.19,0.26-0.26,0.42-0.16l1.02,0.48
		c0.19,0.1,0.26,0.26,0.16,0.42L18.64,33.8z M0.25,21.48c-0.22-0.06-0.29-0.19-0.22-0.42c0.99-3.23,2.59-4.83,4.86-4.83
		c0.51,0,1.02,0.13,1.54,0.35c1.02,0.42,1.41,0.8,2.3,1.66c1.18,1.18,2.24,1.79,3.17,1.79c1.54,0,2.46-0.93,3.26-3.2
		c0.06-0.19,0.19-0.26,0.38-0.19l1.09,0.29c0.22,0.06,0.29,0.19,0.22,0.42c-0.99,3.23-2.62,4.86-4.86,4.86
		c-0.51,0-1.02-0.1-1.54-0.32c-1.02-0.48-1.41-0.83-2.3-1.7c-1.22-1.22-2.27-1.82-3.17-1.82c-1.54,0-2.46,0.93-3.26,3.2
		c-0.06,0.22-0.19,0.29-0.38,0.22L0.25,21.48z"/>
</g>
</svg>
