<?xml version="1.0" encoding="UTF-8"?>
<svg height="128px" viewBox="0 0 128 128" width="128px" xmlns="http://www.w3.org/2000/svg" xmlns:xlink="http://www.w3.org/1999/xlink">
    <filter id="a" height="100%" width="100%" x="0%" y="0%">
        <feColorMatrix color-interpolation-filters="sRGB" values="0 0 0 0 1 0 0 0 0 1 0 0 0 0 1 0 0 0 1 0"/>
    </filter>
    <linearGradient id="b" gradientUnits="userSpaceOnUse" x1="12" x2="116" y1="64" y2="64">
        <stop offset="0" stop-color="#77767b"/>
        <stop offset="0.05" stop-color="#c0bfbc"/>
        <stop offset="0.1" stop-color="#9a9996"/>
        <stop offset="0.899999" stop-color="#9a9996"/>
        <stop offset="0.95" stop-color="#c0bfbc"/>
        <stop offset="1" stop-color="#77767b"/>
    </linearGradient>
    <mask id="c">
        <g filter="url(#a)">
            <rect fill-opacity="0.05" height="153.6" width="153.6" x="-12.8" y="-12.8"/>
        </g>
    </mask>
    <radialGradient id="d" cx="63.999996" cy="194.190475" gradientTransform="matrix(4.727273 -0.00000079 0.0000003 1.636364 -238.545471 -221.766182)" gradientUnits="userSpaceOnUse" r="44">
        <stop offset="0" stop-color="#ffffff"/>
        <stop offset="1" stop-color="#ffffff" stop-opacity="0.094118"/>
    </radialGradient>
    <clipPath id="e">
        <rect height="152" width="192"/>
    </clipPath>
    <path d="m 20 22 h 88 c 4.417969 0 8 3.582031 8 8 v 78 c 0 4.417969 -3.582031 8 -8 8 h -88 c -4.417969 0 -8 -3.582031 -8 -8 v -78 c 0 -4.417969 3.582031 -8 8 -8 z m 0 0" fill="url(#b)"/>
    <path d="m 20 12 h 88 c 4.417969 0 8 3.582031 8 8 v 80 c 0 4.417969 -3.582031 8 -8 8 h -88 c -4.417969 0 -8 -3.582031 -8 -8 v -80 c 0 -4.417969 3.582031 -8 8 -8 z m 0 0" fill="#deddda"/>
    <path d="m 20 104 h 88 c 2.210938 0 4 -1.789062 4 -4 v -80 c 0 -2.210938 -1.789062 -4 -4 -4 h -88 c -2.210938 0 -4 1.789062 -4 4 v 80 c 0 2.210938 1.789062 4 4 4 z m 0 0" fill="#241f31"/>
    <g mask="url(#c)">
        <g clip-path="url(#e)">
            <path d="m 108 100 h -88 v -78 h 88 z m 0 0" fill="url(#d)"/>
        </g>
    </g>
    <g fill="#ffffff">
        <path d="m 27.488281 44.269531 h 2.382813 v 2.628907 h -2.382813 z m 11.277344 -4.253906 v -4.261719 h 2.09375 v 11.144532 h -2.09375 v -1.1875 c -0.222656 0.460937 -0.515625 0.8125 -0.871094 1.042968 c -0.355469 0.234375 -0.773437 0.351563 -1.253906 0.351563 c -0.917969 0 -1.628906 -0.367188 -2.136719 -1.101563 c -0.503906 -0.734375 -0.757812 -1.769531 -0.757812 -3.109375 c 0 -1.355469 0.253906 -2.394531 0.765625 -3.121093 c 0.515625 -0.726563 1.25 -1.089844 2.199219 -1.089844 c 0.429687 0 0.8125 0.113281 1.152343 0.335937 c 0.34375 0.222657 0.644531 0.554688 0.902344 0.996094 z m -2.921875 2.894531 c 0 0.773438 0.128906 1.378906 0.386719 1.820313 c 0.257812 0.4375 0.613281 0.65625 1.066406 0.65625 c 0.457031 0 0.8125 -0.21875 1.074219 -0.65625 c 0.265625 -0.441407 0.394531 -1.046875 0.394531 -1.820313 c 0 -0.773437 -0.128906 -1.378906 -0.394531 -1.820312 c -0.261719 -0.4375 -0.617188 -0.65625 -1.074219 -0.65625 c -0.453125 0 -0.808594 0.21875 -1.066406 0.65625 c -0.257813 0.441406 -0.386719 1.046875 -0.386719 1.820312 z m 10.5 -2.519531 c -0.5 0 -0.894531 0.21875 -1.183594 0.664063 c -0.285156 0.441406 -0.429687 1.054687 -0.429687 1.839843 c 0 0.789063 0.144531 1.40625 0.429687 1.847657 c 0.289063 0.441406 0.683594 0.660156 1.183594 0.660156 c 0.503906 0 0.902344 -0.21875 1.1875 -0.660156 c 0.289062 -0.441407 0.429688 -1.058594 0.429688 -1.847657 c 0 -0.785156 -0.140626 -1.398437 -0.429688 -1.839843 c -0.285156 -0.445313 -0.683594 -0.664063 -1.1875 -0.664063 z m -3.710938 2.503906 c 0 -1.292969 0.335938 -2.316406 1.003907 -3.070312 c 0.671875 -0.761719 1.574219 -1.140625 2.707031 -1.140625 c 1.136719 0 2.039062 0.378906 2.707031 1.140625 c 0.671875 0.753906 1.007813 1.777343 1.007813 3.070312 c 0 1.296875 -0.335938 2.320313 -1.007813 3.082031 c -0.667969 0.753907 -1.570312 1.128907 -2.707031 1.128907 c -1.132812 0 -2.035156 -0.375 -2.707031 -1.128907 c -0.667969 -0.761718 -1.003907 -1.785156 -1.003907 -3.082031 z m 13.070313 -6.292969 v 2.277344 h 2.742187 v 1.609375 h -2.742187 v 3.796875 c 0 0.359375 0.085937 0.617188 0.257813 0.773438 c 0.175781 0.152344 0.46875 0.230468 0.875 0.230468 h 1.609374 v 1.609376 h -1.761718 c -1.203125 0 -2.015625 -0.191407 -2.441406 -0.574219 c -0.425782 -0.386719 -0.636719 -1.097657 -0.636719 -2.140625 v -3.695313 h -2.046875 v -1.609375 h 2.046875 v -2.277344 z m 9.179687 1.574219 v 0.703125 h 2.464844 v 1.609375 h -2.464844 v 6.410157 h -2.097656 v -6.410157 h -1.945312 v -1.609375 h 1.945312 v -0.558594 c 0 -0.964843 0.203125 -1.632812 0.601563 -2.007812 c 0.402343 -0.371094 1.148437 -0.558594 2.234375 -0.558594 h 1.726562 v 1.613282 h -1.640625 c -0.3125 0 -0.527343 0.058593 -0.644531 0.171874 c -0.109375 0.113282 -0.167969 0.328126 -0.179688 0.636719 z m 5.121094 0.703125 h 4.15625 v 6.410156 h 2.605469 v 1.609376 h -7.320313 v -1.609376 h 2.613282 v -4.800781 h -2.054688 z m 2.054688 -3.902344 h 2.101562 v 2.449219 h -2.101562 z m 7.964844 8.578126 v -6.1875 h -2.125 v -1.613282 h 4.222656 v 7.800782 c 0 0.628906 0.097656 1.078124 0.292968 1.339843 c 0.199219 0.261719 0.527344 0.394531 0.996094 0.394531 h 1.675782 v 1.609376 h -2.261719 c -1 0 -1.714844 -0.257813 -2.148438 -0.773438 c -0.433593 -0.515625 -0.652343 -1.371094 -0.652343 -2.570312 z m 13.949218 2.949218 c -0.484375 0.203125 -0.980468 0.351563 -1.488281 0.453125 c -0.503906 0.097657 -1.039063 0.148438 -1.605469 0.148438 c -1.339844 0 -2.367187 -0.355469 -3.078125 -1.074219 c -0.707031 -0.71875 -1.058593 -1.753906 -1.058593 -3.105469 c 0 -1.308593 0.339843 -2.34375 1.023437 -3.101562 c 0.683594 -0.761719 1.613281 -1.140625 2.792969 -1.140625 c 1.1875 0 2.109375 0.355468 2.765625 1.0625 c 0.65625 0.699218 0.988281 1.691406 0.988281 2.96875 v 0.855468 h -5.4375 c 0.003906 0.628907 0.191406 1.097657 0.558594 1.410157 c 0.367187 0.308593 0.917968 0.464843 1.648437 0.464843 c 0.480469 0 0.957031 -0.070312 1.425781 -0.207031 c 0.464844 -0.140625 0.957032 -0.359375 1.464844 -0.660156 z m -1.773437 -4.511718 c -0.011719 -0.550782 -0.152344 -0.96875 -0.429688 -1.253907 c -0.273437 -0.285156 -0.675781 -0.429687 -1.210937 -0.429687 c -0.484375 0 -0.867188 0.148437 -1.152344 0.445312 c -0.289062 0.292969 -0.457031 0.707032 -0.507812 1.246094 z m 9.808593 -2.863282 v 1.832032 c -0.386718 -0.246094 -0.789062 -0.433594 -1.207031 -0.558594 c -0.417969 -0.128906 -0.835937 -0.191406 -1.253906 -0.191406 c -0.46875 0 -0.820313 0.070312 -1.0625 0.207031 c -0.238281 0.132812 -0.355469 0.335937 -0.355469 0.601562 c 0 0.382813 0.511719 0.691407 1.53125 0.929688 l 0.078125 0.023437 l 0.601563 0.140625 c 0.765625 0.183594 1.324218 0.476563 1.675781 0.882813 c 0.359375 0.402344 0.539063 0.945312 0.539063 1.632812 c 0 0.824219 -0.273438 1.445313 -0.816407 1.863282 c -0.539062 0.410156 -1.355469 0.613281 -2.441406 0.613281 c -0.484375 0 -0.976563 -0.042969 -1.484375 -0.128907 c -0.503906 -0.078124 -1.019531 -0.203124 -1.539062 -0.371093 v -1.832031 c 0.460937 0.261718 0.933593 0.460937 1.410156 0.601562 c 0.484375 0.136719 0.949218 0.207031 1.398437 0.207031 c 0.488281 0 0.863281 -0.074219 1.117188 -0.214843 c 0.25 -0.144532 0.378906 -0.351563 0.378906 -0.625 c 0 -0.265626 -0.089844 -0.472657 -0.273437 -0.613282 c -0.175782 -0.144531 -0.601563 -0.296875 -1.273438 -0.460937 l -0.582031 -0.128907 c -0.800781 -0.179687 -1.386719 -0.464843 -1.753907 -0.851562 c -0.367187 -0.386719 -0.550781 -0.902344 -0.550781 -1.554688 c 0 -0.773437 0.277344 -1.375 0.835938 -1.804687 c 0.558593 -0.429687 1.34375 -0.644531 2.359375 -0.644531 c 0.453125 0 0.902344 0.039062 1.351562 0.117187 c 0.453125 0.070313 0.894532 0.179688 1.316406 0.328125 z m 0 0"/>
        <path d="m 29.242188 79.785156 v 2.164063 c 0.300781 -0.042969 0.535156 -0.160157 0.703124 -0.34375 c 0.164063 -0.191407 0.25 -0.433594 0.25 -0.726563 c 0 -0.292968 -0.085937 -0.535156 -0.25 -0.722656 c -0.164062 -0.191406 -0.398437 -0.3125 -0.703124 -0.371094 z m -1.011719 -2.070312 v -2.027344 c -0.292969 0.039062 -0.519531 0.140625 -0.671875 0.300781 c -0.148438 0.160157 -0.222656 0.375 -0.222656 0.652344 c 0 0.273437 0.074218 0.5 0.222656 0.679687 c 0.152344 0.183594 0.378906 0.3125 0.671875 0.394532 z m 1.011719 8.007812 h -1.011719 l -0.003907 -2.15625 c -0.417968 -0.015625 -0.851562 -0.078125 -1.304687 -0.1875 s -0.925781 -0.265625 -1.417969 -0.472656 v -1.875 c 0.492188 0.289062 0.964844 0.515625 1.425782 0.671875 c 0.460937 0.160156 0.894531 0.238281 1.300781 0.246094 v -2.359375 c -0.9375 -0.183594 -1.636719 -0.503906 -2.097657 -0.957032 c -0.457031 -0.460937 -0.6875 -1.0625 -0.6875 -1.8125 c 0 -0.796874 0.246094 -1.433593 0.730469 -1.90625 c 0.488281 -0.472656 1.171875 -0.738281 2.054688 -0.792968 v -1.699219 h 1.011719 l 0.007812 1.699219 c 0.339844 0.019531 0.6875 0.0625 1.050781 0.128906 c 0.367188 0.066406 0.742188 0.160156 1.125 0.277344 v 1.835937 c -0.296875 -0.191406 -0.625 -0.34375 -0.988281 -0.460937 c -0.363281 -0.113282 -0.761719 -0.183594 -1.195312 -0.214844 v 2.199219 c 0.941406 0.148437 1.648437 0.46875 2.125 0.96875 c 0.484374 0.488281 0.726562 1.144531 0.726562 1.96875 c 0 0.78125 -0.261719 1.425781 -0.78125 1.925781 c -0.515625 0.5 -1.203125 0.773438 -2.0625 0.816406 z m 21.519531 -0.058594 v 1.359376 h -8.828125 v -1.359376 z m 0 0"/>
    </g>
</svg>
