<svg viewBox="0 0 128 128"><filter id="a" width="100%" height="100%" x="0%" y="0%"><feColorMatrix color-interpolation-filters="sRGB" values="0 0 0 0 1 0 0 0 0 1 0 0 0 0 1 0 0 0 1 0"/></filter><linearGradient id="b" x1="12" x2="116" y1="64" y2="64" gradientUnits="userSpaceOnUse"><stop offset="0" stop-color="#77767b"/><stop offset=".05" stop-color="#c0bfbc"/><stop offset=".1" stop-color="#9a9996"/><stop offset=".9" stop-color="#9a9996"/><stop offset=".95" stop-color="#c0bfbc"/><stop offset="1" stop-color="#77767b"/></linearGradient><mask id="d"><g filter="url(#a)"><path fill-opacity=".05" d="M-12.8-12.8h153.6v153.6H-12.8z"/></g></mask><radialGradient id="f" cx="64" cy="194.19" r="44" gradientTransform="matrix(4.72727 0 0 1.63636 -238.55 -221.77)" gradientUnits="userSpaceOnUse"><stop offset="0" stop-color="#fff"/><stop offset="1" stop-color="#fff" stop-opacity=".09"/></radialGradient><clipPath id="c"><path d="M0 0h192v152H0z"/></clipPath><path fill="url(#b)" d="M20 22h88a8 8 0 0 1 8 8v78a8 8 0 0 1-8 8H20a8 8 0 0 1-8-8V30a8 8 0 0 1 8-8m0 0"/><path fill="#deddda" d="M20 12h88a8 8 0 0 1 8 8v80a8 8 0 0 1-8 8H20a8 8 0 0 1-8-8V20a8 8 0 0 1 8-8m0 0"/><path fill="#241f31" d="M20 104h88a4 4 0 0 0 4-4V20a4 4 0 0 0-4-4H20a4 4 0 0 0-4 4v80a4 4 0 0 0 4 4m0 0"/><g clip-path="url(#c)" mask="url(#d)"><path fill="url(#f)" d="M108 100H20V22h88zm0 0"/></g><path fill="#fff" d="M27.49 44.27h2.38v2.63H27.5zm11.28-4.25v-4.27h2.09V46.9h-2.1v-1.2a2.2 2.2 0 0 1-2.12 1.4q-1.38 0-2.14-1.1a5.5 5.5 0 0 1-.75-3.12q0-2.03.76-3.12a2.5 2.5 0 0 1 2.2-1.09q.64 0 1.15.34.52.33.9 1m-2.93 2.89q0 1.16.39 1.82.38.66 1.07.66.67 0 1.07-.66t.4-1.82-.4-1.82-1.07-.66q-.69 0-1.07.66a3.6 3.6 0 0 0-.39 1.82m10.5-2.52q-.75 0-1.18.66a3.4 3.4 0 0 0-.43 1.84q0 1.2.43 1.85t1.18.66 1.2-.66q.42-.66.42-1.85 0-1.17-.43-1.84a1.3 1.3 0 0 0-1.19-.66m-3.7 2.5q0-1.93 1-3.07a3.4 3.4 0 0 1 2.7-1.14q1.7 0 2.71 1.14 1 1.14 1 3.07 0 1.94-1 3.09a3.4 3.4 0 0 1-2.7 1.13 3.4 3.4 0 0 1-2.71-1.13 4.5 4.5 0 0 1-1-3.09M55.7 36.6v2.28h2.75v1.6H55.7v3.8q0 .54.26.78.27.23.88.23h1.6v1.6h-1.76q-1.8 0-2.44-.57-.63-.58-.63-2.14v-3.7h-2.05v-1.6h2.05V36.6zm9.18 1.58v.7h2.47v1.6h-2.47v6.42h-2.1v-6.41h-1.94v-1.61h1.95v-.56q0-1.44.6-2t2.23-.57h1.73v1.62H65.7q-.47 0-.65.17-.16.17-.18.64m5.12.7h4.16v6.4h2.6v1.62h-7.31v-1.61h2.6v-4.8H70zm2.06-3.9h2.1v2.45h-2.1zm7.96 8.57v-6.18H77.9v-1.62h4.22v7.8q0 .95.3 1.34t.99.4h1.68v1.6h-2.27q-1.5 0-2.14-.77-.66-.77-.66-2.57m13.95 2.95a8 8 0 0 1-3.1.6q-2 0-3.07-1.07-1.05-1.08-1.06-3.1 0-1.97 1.03-3.1a3.6 3.6 0 0 1 2.79-1.15q1.78 0 2.76 1.07 1 1.05 1 2.96v.86h-5.44q0 .95.55 1.41.56.46 1.65.47.72 0 1.43-.21.7-.21 1.46-.66zM92.2 42q-.01-.84-.43-1.26-.41-.43-1.21-.43-.73 0-1.15.44-.44.44-.51 1.25zm9.8-2.87v1.83a5 5 0 0 0-2.45-.75q-.7 0-1.07.2a.7.7 0 0 0-.35.61q0 .58 1.53.93l.08.02.6.14a3 3 0 0 1 1.68.89q.53.6.53 1.63 0 1.23-.81 1.86-.82.62-2.44.62-.73 0-1.49-.13a10 10 0 0 1-1.54-.37v-1.84q.7.4 1.41.6.73.21 1.4.21.74 0 1.12-.21a.7.7 0 0 0 .38-.63q0-.4-.28-.61-.26-.22-1.27-.46l-.58-.13a3.4 3.4 0 0 1-1.75-.85q-.56-.58-.56-1.56 0-1.16.84-1.8a3.8 3.8 0 0 1 2.36-.65 8 8 0 0 1 2.67.45M29.24 79.79v2.16q.46-.06.7-.34.26-.3.26-.73-.01-.45-.25-.72-.25-.3-.7-.37m-1.01-2.08V75.7q-.45.06-.67.3a1 1 0 0 0-.22.65q0 .4.22.68.23.27.67.4m1.01 8.01h-1.01v-2.15q-.64-.02-1.3-.2a9 9 0 0 1-1.43-.46v-1.88q.74.44 1.43.67.7.24 1.3.25v-2.36a4 4 0 0 1-2.1-.96 2.5 2.5 0 0 1-.68-1.81q0-1.2.73-1.9a3 3 0 0 1 2.05-.8v-1.7h1.01l.01 1.7a9 9 0 0 1 2.18.4v1.84q-.45-.28-1-.46a5 5 0 0 0-1.19-.21v2.2q1.41.22 2.13.97.72.72.72 1.96 0 1.18-.78 1.93-.77.75-2.06.82zm21.52-.06v1.36h-8.83v-1.36zm0 0"/></svg>